<svg id="Layer_1" data-name="Layer 1" xmlns="http://www.w3.org/2000/svg" viewBox="0 0 529.16 127.07" width="170"><defs><style>@font-face{font-family:Poppins-SemiBold;src:url(../fonts/Poppins-SemiBold.ttf) format(&apos;truetype&apos;);font-weight:600;font-style:normal}.cls-1{fill:#93c9fe}.cls-2{fill:#0078e8}</style></defs><path class="cls-1" d="M75.79 28.17a70.58 70.58 0 01-9.67-7.54c-3.8-3.4-5.09-5.09-10.26-10.42-2-2.11-5-5.05-8.58-8.54a2.34 2.34 0 00-2.63-.32l-28 16.13a2.3 2.3 0 00-1 2.59q2.68 8.25 5.39 16.51c2.11-.51 3.89-1 6.38-1.8 1.07-.36 2.21-.73 3.41-1.16Q29.12 28.28 27.39 23l17.35-10c3.44 4.16 6.53 7.5 8.89 10a90.92 90.92 0 0010 9.35 74.79 74.79 0 008.52 5.81 71.16 71.16 0 0014.23 6.26 92.65 92.65 0 012.41-10 61.34 61.34 0 01-13-6.25z"/><path class="cls-2" d="M38.81 35a70 70 0 01-11.36 4.6c-4.84 1.59-6.95 1.87-14.15 3.68-2.85.71-6.85 1.76-11.69 3.16A2.34 2.34 0 000 48.57v32.3A2.31 2.31 0 001.75 83l17 3.58c.61-2.09 1.09-3.85 1.63-6.42.23-1.11.47-2.28.7-3.53l-11-2.34.06-20c5.33-.89 9.77-1.9 13.07-2.72a90.35 90.35 0 0013.1-4 72.5 72.5 0 009.28-4.48A71.46 71.46 0 0058.15 34a95.39 95.39 0 01-7.42-7.07A61.7 61.7 0 0138.81 35z"/><path class="cls-1" d="M26.33 70.32a70.14 70.14 0 01-1.69 12.14c-1 5-1.86 7-3.9 14.09-.8 2.83-1.9 6.82-3.1 11.71a2.34 2.34 0 001 2.43l27.85 16.1a2.27 2.27 0 002.83-.54c2.11-2.68 4.48-5.45 7.13-8.25q2.27-2.4 4.49-4.5c-.66-.71-1.49-1.56-2.47-2.51a102.081 102.081 0 00-4.98-4.49 46.26 46.26 0 00-7.49 8.34l-17.28-10.06c1.89-5.06 3.24-9.4 4.18-12.67A91.93 91.93 0 0036 78.77a73 73 0 00.77-10.28A71.7 71.7 0 0035.08 53a94.57 94.57 0 01-9.83 2.89 61.5 61.5 0 011.08 14.43z"/><path class="cls-2" d="M50.51 99a70.58 70.58 0 019.67 7.54c3.8 3.4 5.09 5.09 10.26 10.42 2 2.11 5 5 8.58 8.54a2.34 2.34 0 002.63.32l28-16.13a2.3 2.3 0 001-2.59q-2.7-8.25-5.39-16.51c-2.12.51-3.89 1-6.38 1.8-1.08.36-2.21.73-3.41 1.16q1.74 5.34 3.47 10.67l-17.35 9.94c-3.44-4.16-6.53-7.5-8.9-10a90 90 0 00-10-9.35A75.73 75.73 0 0054.15 89a71.42 71.42 0 00-14.23-6.26 92.65 92.65 0 01-2.41 10 61.34 61.34 0 0113 6.26z"/><path class="cls-1" d="M87.48 92.39a70.4 70.4 0 0111.37-4.6c4.84-1.59 7-1.87 14.15-3.67 2.85-.72 6.85-1.77 11.69-3.17a2.34 2.34 0 001.59-2.11v-32.3a2.31 2.31 0 00-1.75-2.16l-17-3.58c-.62 2.09-1.09 3.86-1.63 6.42-.23 1.11-.48 2.28-.7 3.54l11 2.33-.06 20c-5.33.89-9.77 1.9-13.07 2.72a90.35 90.35 0 00-13.1 4 73.2 73.2 0 00-9.28 4.48 70.72 70.72 0 00-12.54 9.19 93.37 93.37 0 017.42 7.06 62 62 0 0111.91-8.15z"/><path class="cls-2" d="M100 56.81a70.14 70.14 0 011.69-12.14c1-5 1.86-7 3.89-14.09.81-2.83 1.91-6.82 3.11-11.71a2.34 2.34 0 00-1-2.43L79.66.27a2.31 2.31 0 00-2.74.44q-5.79 6.47-11.6 12.92c1.5 1.58 2.8 2.88 4.75 4.63.85.75 1.74 1.55 2.71 2.37l7.51-8.34 17.28 10.06c-1.88 5.06-3.23 9.4-4.17 12.67a91.93 91.93 0 00-3.1 13.34 73 73 0 00-.77 10.28 70.44 70.44 0 001.69 15.45 94.57 94.57 0 019.83-2.89A61.5 61.5 0 01100 56.81z"/><text transform="translate(162.55 89.66)" font-size="77.66" fill="#333" font-family="Poppins-SemiBold,Poppins" font-weight="600">blueprint</text></svg>